<svg xmlns="http://www.w3.org/2000/svg" viewBox="0 0 173.86559 67.515327">
  <rect width="173.86559" height="67.515327" fill="#f9f8f4"/>
  <g transform="translate(-13.695501,-225.18161)">
    <g transform="matrix(1.9935391,0,0,3.6362289,-30.42449,118.87082)" fill="#95a5a6">
      <path d="m 97.340886,42.444549 q -1.143004,0 -1.625604,-0.3302 -0.4826,-0.3556 -0.5842,-0.889 -0.0762,-0.5588 -0.0762,-1.1176 v -8.2804 q 0,-0.5842 0.1016,-1.0922 0.1016,-0.5334 0.5842,-0.8636 0.4826,-0.3302 1.625604,-0.3302 1.1176,0 1.5748,0.3048 0.4826,0.3048 0.5842,0.6858 0.1016,0.3556 0.1016,0.5588 l -0.4064,-0.1524 q 0,0 0.2032,-0.2286 0.2032,-0.2286 0.584204,-0.5334 0.4064,-0.3048 0.9398,-0.5334 0.5588,-0.2286 1.24459,-0.2286 0.2286,0 0.5588,0.0508 0.3556,0.0254 0.7366,0.127 0.4064,0.1016 0.7366,0.3048 0.3556,0.2032 0.5588,0.5334 0.2286,0.3302 0.2286,0.8128 0,1.27 -0.5588,2.159 -0.5334,0.889 -1.4224,0.889 -0.4826,0 -0.6858,-0.0508 -0.2032,-0.0762 -0.3048,-0.127 -0.0762,-0.0762 -0.20319,-0.127 -0.1016,-0.0762 -0.4064,-0.0762 -0.381,0 -0.7112,0.1016 -0.3048,0.0762 -0.5588,0.254 -0.228604,0.1778 -0.355604,0.4318 -0.127,0.2286 -0.127,0.508 v 4.953 q 0,0.5588 -0.1016,1.0922 -0.1016,0.5334 -0.5842,0.8636 -0.4826,0.3302 -1.651,0.3302 z"/>
      <path d="m 77.198667,42.444549 q -1.143,0 -1.6256,-0.3302 -0.4826,-0.3556 -0.5842,-0.889 -0.0762,-0.5334 -0.0762,-1.0922 v -8.3058 q 0,-0.5842 0.1016,-1.0922 0.1016,-0.5334 0.5842,-0.8636 0.4826,-0.3302 1.651,-0.3302 1.143,0 1.651,0.4572 0.5334,0.4318 0.5334,1.4224 l -0.4318,-0.127 q 0,0 0.1778,-0.254 0.2032,-0.2794 0.5588,-0.635 0.381,-0.3556 0.9144,-0.6096 0.5334,-0.2794 1.2192,-0.2794 0.7874,0 1.4478,0.2032 0.6604,0.2032 1.1938,0.635 0.5588,0.4064 0.9652,1.016 0.2794,-0.3302 0.762,-0.762 0.482605,-0.4318 1.143005,-0.762 0.68579,-0.3302 1.52399,-0.3302 1.4986,0 2.54,0.762 1.0668,0.762 1.6002,2.2098 0.5588,1.4478 0.5588,3.5052 v 4.1402 q 0,0.5588 -0.1016,1.0922 -0.1016,0.5334 -0.5842,0.889 -0.4826,0.3302 -1.651,0.3302 -1.143,0 -1.6256,-0.3556 -0.4826,-0.3556 -0.5842,-0.889 -0.0762,-0.5334 -0.0762,-1.0922 v -4.1402 q 0,-0.6096 -0.1524,-0.9906 -0.127,-0.4064 -0.4064,-0.6096 -0.254,-0.2032 -0.66039,-0.2032 -0.4318,0 -0.7112,0.1778 -0.254,0.1778 -0.381,0.5842 -0.101605,0.381 -0.101605,1.0668 v 4.1402 q 0,0.5588 -0.1016,1.0922 -0.1016,0.5334 -0.5842,0.889 -0.4826,0.3302 -1.651,0.3302 -1.143,0 -1.6256,-0.3556 -0.4826,-0.3556 -0.5842,-0.889 -0.0762,-0.5334 -0.0762,-1.0922 v -4.1402 q 0,-0.6096 -0.127,-1.016 -0.127,-0.4064 -0.4064,-0.5842 -0.254,-0.2032 -0.6858,-0.2032 -0.508,0 -0.762,0.254 -0.254,0.254 -0.3556,0.6604 -0.0762,0.4064 -0.0762,0.889 v 4.191 q 0,0.5588 -0.1016,1.0922 -0.1016,0.5334 -0.5842,0.8636 -0.4826,0.3302 -1.651,0.3302 z"/>
      <path d="m 67.140254,42.673149 q -1.1684,0 -2.3622,-0.4572 -1.1938,-0.4826 -2.2098,-1.3462 -0.9906,-0.889 -1.6002,-2.1082 -0.5842,-1.2446 -0.5842,-2.7686 0,-1.397 0.5334,-2.6162 0.5334,-1.2192 1.4478,-2.1336 0.9398,-0.9398 2.1336,-1.4732 1.2192,-0.5334 2.5908,-0.5334 1.8796,0 3.403599,0.9144 1.524,0.889 2.4384,2.413 0.9144,1.524 0.9144,3.4036 0,1.6002 -0.6096,2.8448 -0.6096,1.2446 -1.6002,2.1082 -0.9906,0.8636 -2.184399,1.2954 -1.1684,0.4572 -2.3114,0.4572 z m -0.0508,-4.6482 q 0.381,0 0.8636,-0.1778 0.508,-0.2032 0.8636,-0.6604 0.381,-0.4572 0.381,-1.2446 0,-0.635 -0.2794,-1.0922 -0.254,-0.4572 -0.7366,-0.7112 -0.4826,-0.254 -1.1176,-0.254 -0.5588,0 -1.016,0.2794 -0.4572,0.254 -0.7366,0.7366 -0.2794,0.4572 -0.2794,1.0668 0,0.762 0.3556,1.2192 0.3556,0.4572 0.8382,0.6604 0.4826,0.1778 0.8636,0.1778 z"/>
      <path d="m 52.96704,42.673149 q -1.1684,0 -2.362199,-0.4572 -1.1938,-0.4826 -2.2098,-1.3462 -0.9906,-0.889 -1.6002,-2.1082 -0.5842,-1.2446 -0.5842,-2.7686 0,-1.397 0.5334,-2.6162 0.5334,-1.2192 1.4478,-2.1336 0.9398,-0.9398 2.1336,-1.4732 1.2192,-0.5334 2.590799,-0.5334 1.8796,0 3.4036,0.9144 1.524,0.889 2.4384,2.413 0.9144,1.524 0.9144,3.4036 0,1.6002 -0.6096,2.8448 -0.6096,1.2446 -1.6002,2.1082 -0.9906,0.8636 -2.1844,1.2954 -1.1684,0.4572 -2.3114,0.4572 z m -0.0508,-4.6482 q 0.381,0 0.8636,-0.1778 0.508,-0.2032 0.8636,-0.6604 0.381,-0.4572 0.381,-1.2446 0,-0.635 -0.2794,-1.0922 -0.254,-0.4572 -0.7366,-0.7112 -0.4826,-0.254 -1.1176,-0.254 -0.5588,0 -1.016,0.2794 -0.457199,0.254 -0.736599,0.7366 -0.2794,0.4572 -0.2794,1.0668 0,0.762 0.3556,1.2192 0.3556,0.4572 0.838199,0.6604 0.4826,0.1778 0.8636,0.1778 z"/>
      <path d="m 38.692278,42.444549 q -1.143,0 -1.6256,-0.3302 -0.4826,-0.3556 -0.5842,-0.889 -0.0762,-0.5588 -0.0762,-1.1176 v -8.2804 q 0,-0.5842 0.1016,-1.0922 0.1016,-0.5334 0.5842,-0.8636 0.4826,-0.3302 1.6256,-0.3302 1.1176,0 1.5748,0.3048 0.4826,0.3048 0.5842,0.6858 0.1016,0.3556 0.1016,0.5588 l -0.4064,-0.1524 q 0,0 0.2032,-0.2286 0.2032,-0.2286 0.5842,-0.5334 0.4064,-0.3048 0.9398,-0.5334 0.5588,-0.2286 1.2446,-0.2286 0.2286,0 0.5588,0.0508 0.3556,0.0254 0.7366,0.127 0.4064,0.1016 0.7366,0.3048 0.3556,0.2032 0.5588,0.5334 0.2286,0.3302 0.2286,0.8128 0,1.27 -0.5588,2.159 -0.5334,0.889 -1.4224,0.889 -0.4826,0 -0.6858,-0.0508 -0.2032,-0.0762 -0.3048,-0.127 -0.0762,-0.0762 -0.2032,-0.127 -0.1016,-0.0762 -0.4064,-0.0762 -0.381,0 -0.7112,0.1016 -0.3048,0.0762 -0.5588,0.254 -0.2286,0.1778 -0.3556,0.4318 -0.127,0.2286 -0.127,0.508 v 4.953 q 0,0.5588 -0.1016,1.0922 -0.1016,0.5334 -0.5842,0.8636 -0.4826,0.3302 -1.651,0.3302 z"/>
      <path d="m 28.506888,47.803949 q -0.888999,0 -1.828799,-0.254 -0.914399,-0.2286 -1.701799,-0.635 -0.7874,-0.4064 -1.27,-0.889 -0.4826,-0.4572 -0.4826,-0.9144 0,-0.508 0.1778,-0.9398 0.2032,-0.4318 0.5842,-0.8382 0.4064,-0.4318 0.7112,-0.6858 0.3048,-0.254 0.7366,-0.254 0.381,0 0.6604,0.1778 0.3048,0.1778 0.609599,0.381 0.3048,0.2286 0.7366,0.4064 0.457199,0.1778 1.142999,0.1778 0.381,0 0.7112,-0.1778 0.3302,-0.1524 0.5588,-0.4572 0.254,-0.2794 0.4064,-0.6858 0.1524,-0.381 0.1524,-0.8382 v -10.4648 q 0.1016,-0.762 0.635,-1.0922 0.5334,-0.3302 1.6256,-0.3302 1.1176,0 1.5748,0.3302 0.4572,0.3302 0.5334,0.8636 0.1016,0.508 0.1016,1.0668 v 9.779 q 0,1.4986 -0.5842,2.667 -0.5588,1.1684 -1.4986,1.9558 -0.9398,0.8128 -2.0574,1.2192 -1.1176,0.4318 -2.2352,0.4318 z m -0.635,-5.7404 q -1.117599,0 -2.158998,-0.508 -1.016,-0.508 -1.8288,-1.397 -0.8128,-0.889 -1.2954,-2.0066 -0.4572,-1.143 -0.4572,-2.3876 0,-1.1938 0.4572,-2.3114 0.4826,-1.1176 1.2954,-1.9812 0.8382,-0.889 1.8542,-1.397 1.041399,-0.5334 2.133598,-0.5334 1.1176,0 1.8288,0.4572 0.7366,0.4572 1.143,1.2954 0.4318,0.8382 0.6096,2.0066 0.1778,1.143 0.1778,2.54 0,1.9304 -0.3302,3.3274 -0.3048,1.397 -1.1176,2.159 -0.8128,0.7366 -2.3114,0.7366 z m 0.6096,-4.4704 q 0.4826,0 0.8636,-0.254 0.4064,-0.254 0.635,-0.6604 0.254,-0.4064 0.254,-0.8636 0,-0.508 -0.254,-0.9144 -0.2286,-0.4064 -0.635,-0.635 -0.4064,-0.254 -0.9144,-0.254 -0.4826,0 -0.888999,0.254 -0.4064,0.254 -0.6604,0.6604 -0.2286,0.4064 -0.2286,0.889 0,0.4572 0.254,0.8636 0.254,0.4064 0.6604,0.6604 0.431799,0.254 0.914399,0.254 z"/>
      <path d="m 107.23782,41.998334 q 0.381,0 0.8636,-0.1778 0.508,-0.2032 0.8636,-0.6604 0.381,-0.4572 0.381,-1.2446 0,-0.635 -0.2794,-1.0922 -0.254,-0.4572 -0.7366,-0.7112 -0.4826,-0.254 -1.1176,-0.254 -0.5588,0 -1.016,0.2794 -0.4572,0.254 -0.7366,0.7366 -0.2794,0.4572 -0.2794,1.0668 0,0.762 0.3556,1.2192 0.3556,0.4572 0.8382,0.6604 0.4826,0.1778 0.8636,0.1778 z"/>
    </g>
  </g>
</svg>
